HIERARCHY
ROOT Hips
{
	OFFSET 0.000000 0.000000 0.000000
	CHANNELS 6 Xposition Yposition Zposition Zrotation Yrotation Xrotation 
	JOINT LHipJoint
	{
		OFFSET 0.000000 0.000000 0.000000
		CHANNELS 3 Zrotation Yrotation Xrotation
		JOINT LeftUpLeg
		{
			OFFSET 1.363060 -1.794630 0.839290
			CHANNELS 3 Zrotation Yrotation Xrotation
			JOINT LeftLeg
			{
				OFFSET 2.448110 -6.726130 0.000000
				CHANNELS 3 Zrotation Yrotation Xrotation
				JOINT LeftFoot
				{
					OFFSET 2.562200 -7.039590 0.000000
					CHANNELS 3 Zrotation Yrotation Xrotation
					JOINT LeftToeBase
					{
						OFFSET 0.157640 -0.433110 2.322550
						CHANNELS 3 Zrotation Yrotation Xrotation
						End Site
						{
							OFFSET 0.000000 0.000000 0.000000
						}
					}
				}
			}
		}
	}
	JOINT RHipJoint
	{
		OFFSET 0.000000 0.000000 0.000000
		CHANNELS 3 Zrotation Yrotation Xrotation
		JOINT RightUpLeg
		{
			OFFSET -1.305520 -1.794630 0.839290
			CHANNELS 3 Zrotation Yrotation Xrotation
			JOINT RightLeg
			{
				OFFSET -2.542530 -6.985550 0.000000
				CHANNELS 3 Zrotation Yrotation Xrotation
				JOINT RightFoot
				{
					OFFSET -2.568260 -7.056230 0.000000
					CHANNELS 3 Zrotation Yrotation Xrotation
					JOINT RightToeBase
					{
						OFFSET -0.164730 -0.452590 2.363150
						CHANNELS 3 Zrotation Yrotation Xrotation
						End Site
						{
							OFFSET 0.000000 0.000000 0.000000
						}
					}
				}
			}
		}
	}
}
MOTION
Frames: 11
Frame Time: 0.008333
6.214862 16.288066 2.381705 16.612194 57.427692 22.546655 -9.700349 1.019702 -0.272037 -4.454171 14.104532 -30.121283 -1.302368 1.532954 41.994616 3.845876 23.472206 -13.014288 -2.133301 -0.000000 -11.304200 9.797590 -1.735289 0.779567 16.016107 -2.681223 -9.589099 2.434846 -0.660130 28.534025 -4.237502 -8.754977 -36.832251 -174.418200 0.000000 -18.753300
6.404325 16.366736 2.493230 16.396414 56.093579 22.544332 -9.528163 1.018127 -0.195053 -5.611163 14.020337 -30.581876 -1.367278 1.388273 40.687632 3.949092 23.833346 -13.012552 -2.130700 0.000000 -10.783000 9.976320 -1.840899 1.047455 15.081101 -2.313120 -8.004792 2.420540 -0.474050 26.298891 -3.868132 -7.725563 -35.024122 -175.203000 0.000000 -15.732001
6.596192 16.453067 2.606827 16.210408 54.810398 22.527889 -9.366316 1.034043 -0.107188 -6.757571 13.904845 -30.921312 -1.446128 1.237249 39.202726 4.005422 23.919390 -12.927047 -2.071600 -0.000000 -10.297300 10.162460 -1.971759 1.296850 14.107402 -2.045145 -6.428902 2.381047 -0.311594 24.064468 -3.462581 -6.720582 -32.827221 -175.998600 -0.000000 -12.151300
6.790167 16.546602 2.721847 16.035899 53.593606 22.471121 -9.221379 1.066321 -0.005556 -7.859830 13.738245 -31.122188 -1.533371 1.082479 37.544577 4.008535 23.736262 -12.660044 -1.914200 -0.000000 -10.432900 10.349208 -2.130338 1.514688 13.118366 -1.900317 -4.870448 2.318300 -0.182249 21.866849 -3.028932 -5.754151 -30.230794 -176.784500 -0.000001 -8.025500
6.986121 16.646396 2.837928 15.862223 52.452583 22.361706 -9.097136 1.112656 0.111798 -8.895334 13.509507 -31.180750 -1.629586 0.926192 35.734759 3.957207 23.287685 -12.227768 -1.672200 -0.000000 -10.914000 10.529923 -2.316909 1.691861 12.133369 -1.893968 -3.349525 2.235848 -0.093952 19.749756 -2.578893 -4.835597 -27.246142 -177.537601 -0.000001 -3.381600
7.183804 16.751441 2.955013 15.682747 51.398907 22.192345 -8.996119 1.170975 0.245595 -9.848041 13.214342 -31.096435 -1.732508 0.770483 33.790963 3.852449 22.603584 -11.602569 -1.346300 -0.000000 -11.808400 10.699109 -2.529659 1.822762 11.170393 -2.029950 -1.880594 2.137023 -0.051932 17.747135 -2.127424 -3.979594 -23.887490 1.765600 -0.000000 -1.797700
7.382977 16.860557 3.073239 15.492072 50.443002 21.961038 -8.919122 1.238779 0.395080 -10.709389 12.856943 -30.878203 -1.840166 0.617455 31.735342 3.698875 21.727100 -10.772916 -0.948500 0.000000 -13.099500 10.851532 -2.764038 1.906807 10.249038 -2.294761 -0.476205 2.025330 -0.057507 15.888654 -1.693558 -3.204541 -20.196024 1.149799 0.000000 -7.366500
7.583291 16.972333 3.192860 15.292271 49.591371 21.673394 -8.864225 1.314489 0.557906 -11.483969 12.447049 -30.538739 -1.951330 0.469046 29.592964 3.504962 20.712348 -9.748860 -0.501900 -0.000000 -14.660500 10.985779 -3.015884 1.946693 9.378708 -2.671494 0.850417 1.900452 -0.111462 14.194370 -1.292518 -2.531276 -16.156404 0.626900 0.000000 -13.799200
7.784444 17.085260 3.314177 15.079535 48.850841 21.335100 -8.829502 1.395346 0.730591 -12.177690 12.002207 -30.102386 -2.063931 0.327297 27.395509 3.281035 19.616396 -8.543359 -0.028500 -0.000000 -16.448300 11.098055 -3.276444 1.950297 8.579445 -3.119255 2.089298 1.765532 -0.207484 12.689010 -0.945702 -1.978180 -11.863136 0.211700 -0.000000 -20.614600
7.986028 17.197699 3.437393 14.856863 48.224149 20.956280 -8.811050 1.479371 0.908279 -12.806611 11.542721 -29.593864 -2.176812 0.193829 25.178608 3.039338 18.494361 -7.193584 0.445100 0.000000 -18.328500 11.188325 -3.537144 1.925819 7.860298 -3.603913 3.229559 1.621948 -0.338290 11.396351 -0.666466 -1.551119 -7.390383 -0.096800 -0.000000 -27.636400
8.187647 17.307926 3.562597 14.630459 47.711759 20.549077 -8.804359 1.564935 1.085593 -13.391528 11.088699 -29.037786 -2.288821 0.069917 22.979972 2.792145 17.395910 -5.742941 0.897500 0.000000 -20.221100 11.258732 -3.789024 1.880662 7.222497 -4.099635 4.259472 1.471079 -0.495001 10.342340 -0.461493 -1.239984 -2.826269 -0.308200 -0.000000 -34.653800
